<svg width="180" height="19" viewBox="0 0 180 19" fill="none" xmlns="http://www.w3.org/2000/svg">
<path d="M92.6932 14.7461C91.8975 15.5418 90.8632 15.8336 89.8289 15.8336C87.8133 15.8336 86.1159 14.5075 86.1159 12.0145C86.1159 9.73362 87.7072 8.14231 89.8819 8.14231C90.7836 8.14231 91.7384 8.48709 92.5075 9.17675L94.5497 7.02848C93.1175 5.62288 91.6854 5.0924 89.8289 5.0924C86.0363 5.0924 82.8803 7.37325 82.8803 12.0145C82.8803 16.6557 86.0363 18.9365 89.8289 18.9365C91.7649 18.9365 93.3562 18.353 94.8679 16.8679L92.6932 14.7461ZM102.211 5.19857C98.0476 5.19857 95.4485 8.275 95.4485 12.0145C95.4485 15.7804 97.9946 18.8305 102.238 18.8305C106.481 18.8305 109.054 15.7804 109.054 12.0145C109.054 8.275 106.375 5.19857 102.211 5.19857ZM102.238 8.14231C104.413 8.14231 105.792 10.0519 105.792 12.0145C105.792 14.0036 104.598 15.8601 102.238 15.8601C99.8776 15.8601 98.6841 14.0036 98.6841 12.0145C98.6841 10.0519 99.9041 8.14231 102.238 8.14231ZM124.038 18.5387V11.6697C124.038 7.55893 121.572 5.25158 118.495 5.25158C116.851 5.25158 115.525 5.91461 114.199 7.21418L113.987 5.43717H111.096V18.5387H114.305V11.8554C114.305 9.86631 115.657 8.19547 117.647 8.19547C119.715 8.19547 120.803 9.70712 120.803 11.6962V18.5387H124.038ZM139.762 18.5387V11.6697C139.762 7.55893 137.296 5.25158 134.219 5.25158C132.575 5.25158 131.249 5.91461 129.923 7.21418L129.711 5.43717H126.82V18.5387H130.029V11.8554C130.029 9.86631 131.382 8.19547 133.371 8.19547C135.439 8.19547 136.527 9.70712 136.527 11.6962V18.5387H139.762ZM155.415 13.1548C155.919 7.77104 153.187 5.0659 148.811 5.0659C144.568 5.0659 141.863 7.93023 141.863 11.9084C141.863 16.0987 144.541 18.8835 149.05 18.8835C151.039 18.8835 153.293 18.194 154.672 16.7617L152.604 14.7196C151.861 15.4888 150.296 15.9396 149.103 15.9396C146.822 15.9396 145.417 14.7726 145.204 13.1548H155.415ZM145.257 10.4762C145.735 8.77885 147.167 7.93023 148.917 7.93023C150.774 7.93023 152.1 8.77885 152.312 10.4762H145.257ZM167.031 14.7461C166.236 15.5418 165.201 15.8336 164.167 15.8336C162.151 15.8336 160.454 14.5075 160.454 12.0145C160.454 9.73362 162.045 8.14231 164.22 8.14231C165.122 8.14231 166.077 8.48709 166.846 9.17675L168.888 7.02848C167.456 5.62288 166.024 5.0924 164.167 5.0924C160.375 5.0924 157.219 7.37325 157.219 12.0145C157.219 16.6557 160.375 18.9365 164.167 18.9365C166.103 18.9365 167.694 18.353 169.206 16.8679L167.031 14.7461ZM172.627 2.12202V5.49019H170.187V8.275H172.627V13.924C172.627 17.1862 174.484 18.804 177.321 18.6978C178.303 18.6713 179.072 18.5122 180 18.1409L179.098 15.3826C178.621 15.6214 178.037 15.7804 177.534 15.7804C176.526 15.7804 175.836 15.1706 175.836 13.924V8.275H179.47V5.49019H175.863V1.77724L172.627 2.12202Z" fill="#8CC1B7"/>
<path d="M80.6023 18.5385V5.46348H77.4993L77.3933 7.26698C76.6507 5.96744 74.9798 5.14522 73.2294 5.14522C69.4104 5.1187 66.4135 7.47906 66.4135 11.9877C66.4135 16.5759 69.2778 18.9628 73.1499 18.9363C74.6085 18.9098 76.6507 18.1672 77.3933 16.629L77.5524 18.5385H80.6023ZM73.5212 15.9659C71.3729 15.9659 69.6491 14.4808 69.6491 11.9877C69.6491 9.49468 71.3729 8.03607 73.5212 8.03607C78.6132 8.03607 78.6132 15.9659 73.5212 15.9659ZM64.8755 9.17654L66.3342 6.36523C65.6181 5.64915 64.3186 5.1187 62.966 5.1187C61.6399 5.1187 60.2873 5.35742 59.2795 6.97522L59.0408 5.46348H56.0439V18.5385H59.2795V11.643C59.2795 9.22955 60.8443 8.3278 62.5416 8.3278C63.6025 8.3278 64.2125 8.61956 64.8755 9.17654ZM49.9945 18.5385H53.0445V5.46348H49.9415L49.8354 7.26698C49.0928 5.96744 47.422 5.14522 45.6716 5.14522C41.8525 5.1187 38.8556 7.47906 38.8556 11.9877C38.8556 16.5759 41.7199 18.9628 45.592 18.9363C47.0507 18.9098 49.0928 18.1672 49.8354 16.629L49.9945 18.5385ZM45.9633 15.9659C43.8151 15.9659 42.0912 14.4808 42.0912 11.9877C42.0912 9.49468 43.8151 8.03607 45.9633 8.03607C51.0554 8.03607 51.0554 15.9659 45.9633 15.9659ZM38.8479 18.2998L32.7745 11.6164L38.2756 5.46348H38.1053H34.2332L29.8307 10.7147V0.000156403H26.5951V18.5385H29.8307V12.6242L34.9493 18.5385H38.8479H39.0638L38.8479 18.3009V18.2998Z" fill="#2C747F"/>
<path d="M19.9286 12.7705H17.8335V8.40322H7.40408V5.46289H19.9286V12.7705ZM16.407 12.7705H7.40408V9.82986H16.407V12.7705ZM16.407 17.1378H3.88206V9.82986H5.97732V14.1973H16.407V17.1378ZM5.97732 4.03591V8.40322H2.4554V17.1358H0V18.5626L17.8335 18.5645V14.1973H21.3557V5.46469H23.811V4.03825L5.97732 4.03591Z" fill="#2C747F"/>
</svg>
